# xmcd
#
# Track frame offsets:
#  150
#  19489
#  36516
#  48785
#  72548
#  100434
#  119194
#  138588
#  149920
#  163419
#  183620
#  198111
#  215599
#  230324
#  242578
#  261171
#  275606
#  295087
#
# Disc length: 4135 seconds
#
# Revision: 0
# Processed by: cddbd v1.5.1PL2 Copyright (c) Steve Scherf et al.
# Submitted via: Collectorz.com_Music_Collector 6.10
#
DISCID=30102512
DTITLE=Toyota National Country Music Muster - Toyota Muster Rural Aid Appeal volumes 25,26,27,28 (2004) [CD2)
DYEAR=2004
DGENRE=
TTITLE0=Grame Connors - All Hell Broke Loose
TTITLE1=ADAM BRAND - Built For Speed
TTITLE2=bella - Way Beyond The BLue
TTITLE3=Darren Coggan - Spirit Of The FRee
TTITLE4=Fisk and Christian - The Big Picture
TTITLE5=Crakajak - Throw Roses
TTITLE6=Casey Watt - Guess I LIke My FReedom Too MUch
TTITLE7=Chrome Daddies - Gympie On My MInd
TTITLE8=Brooke Schubert - Something Too Talk About
TTITLE9=Basalt River Boys - It Never Fails
TTITLE10=Anita THomas - Precious Child
TTITLE11=DRew McAlister - Keep On Keeping ON
TTITLE12=Felicity Urqhuart - Turn Out The LIght
TTITLE13=Jim Haynes - Half a Dozen Stubbies In The Fridge
TTITLE14=Jonah's Road - Gettting BY Without You
TTITLE15=Kelly Black - Going Home
TTITLE16=The Red Eye Specials - Party In THe CRowbar
TTITLE17=Travis Collins - Barbed Wire And Roses
EXTD=
EXTT0=
EXTT1=
EXTT2=
EXTT3=
EXTT4=
EXTT5=
EXTT6=
EXTT7=
EXTT8=
EXTT9=
EXTT10=
EXTT11=
EXTT12=
EXTT13=
EXTT14=
EXTT15=
EXTT16=
EXTT17=
PLAYORDER=
